<svg width="24" height="24" viewBox="0 0 24 24" fill="none" xmlns="http://www.w3.org/2000/svg">
<path d="M14 20C14 20.5305 13.7893 21.0392 13.4142 21.4142C13.0391 21.7893 12.5304 22 12 22H11C10.4696 22 9.96086 21.7893 9.58579 21.4142C9.21071 21.0392 9 20.5305 9 20H10C10 20.2652 10.1054 20.5196 10.2929 20.7071C10.4804 20.8947 10.7348 21 11 21H12C12.2652 21 12.5196 20.8947 12.7071 20.7071C12.8946 20.5196 13 20.2652 13 20H14ZM15 17C15 17.5305 14.7893 18.0392 14.4142 18.4142C14.0391 18.7893 13.5304 19 13 19H10C9.46957 19 8.96086 18.7893 8.58579 18.4142C8.21071 18.0392 8 17.5305 8 17V14.978C6.81537 14.221 5.90809 13.1004 5.41425 11.7841C4.9204 10.4679 4.86661 9.02701 5.26093 7.6776C5.65526 6.3282 6.47644 5.14301 7.60133 4.2998C8.72622 3.45658 10.0942 3.00079 11.5 3.00079C12.9058 3.00079 14.2738 3.45658 15.3987 4.2998C16.5236 5.14301 17.3447 6.3282 17.7391 7.6776C18.1334 9.02701 18.0796 10.4679 17.5858 11.7841C17.0919 13.1004 16.1846 14.221 15 14.978V17ZM9 17C9 17.2652 9.10536 17.5196 9.29289 17.7071C9.48043 17.8947 9.73478 18 10 18H13C13.2652 18 13.5196 17.8947 13.7071 17.7071C13.8946 17.5196 14 17.2652 14 17V14.4C15.1001 13.8386 15.9793 12.9232 16.4959 11.8013C17.0124 10.6794 17.1363 9.41632 16.8476 8.21542C16.5589 7.01453 15.8744 5.94576 14.9043 5.18127C13.9343 4.41677 12.7351 4.00104 11.5 4.00104C10.2649 4.00104 9.06573 4.41677 8.09566 5.18127C7.12558 5.94576 6.44107 7.01453 6.15237 8.21542C5.86366 9.41632 5.98757 10.6794 6.50414 11.8013C7.0207 12.9232 7.89986 13.8386 9 14.4V17Z" fill="white"/>
</svg>
