<svg width="133" height="133" viewBox="0 0 133 133" fill="none" xmlns="http://www.w3.org/2000/svg">
<path d="M126.292 16.5539C125.349 15.501 124.003 14.9 122.592 14.9H26.4078C24.9972 14.9 23.6513 15.501 22.7076 16.5539C21.7639 17.6069 21.3169 19.0124 21.4709 20.413L32.4075 118.867C32.626 120.869 34.0415 122.543 35.9785 123.094L73.1292 133.708C73.5762 133.837 74.0381 133.901 74.495 133.901C74.952 133.901 75.4139 133.837 75.8609 133.708L113.012 123.094C114.949 122.543 116.359 120.869 116.583 118.867L127.524 20.413C127.683 19.0124 127.236 17.6069 126.292 16.5539ZM101.896 64.9342L99.681 101.116L74.6589 109.296L49.6369 101.116L48.6883 83.8125H61.3532L61.6711 91.6797L74.6589 96.0852L87.6468 91.6797L88.5954 77.5247H60.7225L60.0917 64.9392H89.2312L90.1798 52.3537H46.4681L45.5195 39.7632H103.481L101.896 64.9342Z" fill="#f5f5f5"/>
</svg>
