<svg width="125" height="125" viewBox="0 0 125 125" fill="none" xmlns="http://www.w3.org/2000/svg">
<path d="M113.184 5.81055C112.715 5.29297 112.041 5 111.338 5H13.6621C12.959 5 12.2851 5.29297 11.8164 5.81055C11.3379 6.32812 11.1035 7.02148 11.1719 7.72461L19.9707 106.289C20.0586 107.324 20.7812 108.184 21.7773 108.477L61.8066 119.902C62.0215 119.971 62.2558 120 62.4902 120C62.7246 120 62.9492 119.971 63.1738 119.902L103.232 108.477C104.229 108.184 104.941 107.324 105.039 106.289L113.828 7.72461C113.896 7.02148 113.662 6.32812 113.184 5.81055ZM92.1191 39.7949H45.0879L46.2109 52.5195H90.9863L87.6269 90.127L62.4805 97.7246L62.2363 97.6465L37.3828 90.1172L36.0254 74.7949H48.2031L48.7305 80.7422L62.6269 83.6523L76.2695 80.7422L77.7246 64.6484H35.1172L31.8066 27.6367H93.2031L92.1191 39.7949Z" fill="#f5f5f5"/>
</svg>
