<svg width="16" height="16" viewBox="0 0 16 16" fill="none" xmlns="http://www.w3.org/2000/svg">
<path d="M8.00075 0C5.82806 0 5.55539 0.00950054 4.70205 0.0483354C3.85037 0.087337 3.26903 0.222176 2.76036 0.420017C2.23419 0.624359 1.78785 0.897703 1.34318 1.34255C0.898176 1.78724 0.62484 2.23359 0.419838 2.75961C0.221502 3.26846 0.0865008 3.84999 0.0481671 4.70136C0.01 5.55472 0 5.82757 0 8.00032C0 10.1731 0.00966692 10.4449 0.048334 11.2983C0.0875011 12.15 0.222336 12.7313 0.420004 13.24C0.624507 13.7662 0.897843 14.2126 1.34268 14.6573C1.78719 15.1023 2.23352 15.3763 2.75936 15.5806C3.26837 15.7785 3.84987 15.9133 4.70138 15.9523C5.55472 15.9911 5.82723 16.0006 7.99975 16.0006C10.1726 16.0006 10.4444 15.9911 11.2978 15.9523C12.1495 15.9133 12.7315 15.7785 13.2405 15.5806C13.7665 15.3763 14.2121 15.1023 14.6567 14.6573C15.1017 14.2126 15.375 13.7662 15.58 13.2402C15.7767 12.7313 15.9117 12.1498 15.9517 11.2985C15.99 10.4451 16 10.1731 16 8.00032C16 5.82757 15.99 5.55489 15.9517 4.70152C15.9117 3.84982 15.7767 3.26846 15.58 2.75978C15.375 2.23359 15.1017 1.78724 14.6567 1.34255C14.2116 0.897536 13.7666 0.624192 13.24 0.420017C12.73 0.222176 12.1483 0.087337 11.2966 0.0483354C10.4433 0.00950054 10.1716 0 7.99825 0H8.00075ZM7.28308 1.44172C7.49608 1.44139 7.73375 1.44172 8.00075 1.44172C10.1368 1.44172 10.3899 1.44939 11.2335 1.48773C12.0135 1.52339 12.4368 1.65373 12.7188 1.76324C13.0921 1.90824 13.3583 2.08158 13.6381 2.36159C13.9181 2.64161 14.0915 2.90828 14.2368 3.28163C14.3463 3.56331 14.4768 3.98666 14.5123 4.76669C14.5507 5.61006 14.559 5.8634 14.559 7.99849C14.559 10.1336 14.5507 10.3869 14.5123 11.2303C14.4767 12.0103 14.3463 12.4337 14.2368 12.7153C14.0918 13.0887 13.9181 13.3545 13.6381 13.6344C13.3581 13.9144 13.0923 14.0877 12.7188 14.2327C12.4371 14.3427 12.0135 14.4727 11.2335 14.5084C10.3901 14.5468 10.1368 14.5551 8.00075 14.5551C5.86456 14.5551 5.61139 14.5468 4.76805 14.5084C3.98804 14.4724 3.5647 14.3421 3.28253 14.2326C2.9092 14.0876 2.64253 13.9142 2.36252 13.6342C2.08252 13.3542 1.90919 13.0882 1.76385 12.7147C1.65435 12.433 1.52385 12.0097 1.48835 11.2296C1.45002 10.3863 1.44235 10.1329 1.44235 7.99649C1.44235 5.86007 1.45002 5.60806 1.48835 4.76469C1.52402 3.98466 1.65435 3.56131 1.76385 3.2793C1.90885 2.90595 2.08252 2.63927 2.36252 2.35926C2.64253 2.07925 2.9092 1.90591 3.28253 1.76057C3.56454 1.65057 3.98804 1.52056 4.76805 1.48473C5.50606 1.45139 5.79206 1.44139 7.28308 1.43972V1.44172ZM12.2711 2.77011C11.7411 2.77011 11.3111 3.19963 11.3111 3.72982C11.3111 4.25984 11.7411 4.68986 12.2711 4.68986C12.8011 4.68986 13.2311 4.25984 13.2311 3.72982C13.2311 3.1998 12.8011 2.76978 12.2711 2.76978V2.77011ZM8.00075 3.89182C5.73189 3.89182 3.89237 5.7314 3.89237 8.00032C3.89237 10.2692 5.73189 12.108 8.00075 12.108C10.2696 12.108 12.1085 10.2692 12.1085 8.00032C12.1085 5.7314 10.2694 3.89182 8.00058 3.89182H8.00075ZM8.00075 5.33355C9.47343 5.33355 10.6674 6.52743 10.6674 8.00032C10.6674 9.47305 9.47343 10.6671 8.00075 10.6671C6.5279 10.6671 5.33406 9.47305 5.33406 8.00032C5.33406 6.52743 6.5279 5.33355 8.00075 5.33355Z" fill="white"/>
</svg>
