<svg width="120" height="120" viewBox="0 0 120 120" fill="none" xmlns="http://www.w3.org/2000/svg">
<path d="M104.006 9.59998H16.0031C12.4688 9.59998 9.6 12.4687 9.6 16.0031V103.997C9.6 107.531 12.4688 110.4 16.0031 110.4H103.997C107.531 110.4 110.4 107.531 110.4 104.006V16.0031C110.4 12.4687 107.531 9.59998 104.006 9.59998ZM64.8 86.8406C64.8 96.4312 59.175 100.8 50.9625 100.8C43.5375 100.8 38.1844 95.8219 36 91.2L43.5469 86.6344C45 89.2125 47.2125 91.2 50.4 91.2C53.4469 91.2 55.2 90.0094 55.2 85.3781V55.2H64.8V86.8406ZM85.6219 100.8C77.1188 100.8 72.2906 96.5156 69.6 91.2L76.8 86.4C78.7594 89.6062 80.8969 92.6719 85.4156 92.6719C89.2125 92.6719 91.2 90.7781 91.2 88.1531C91.2 85.0219 89.1375 83.9062 84.9656 82.0781L82.6781 81.0937C76.0688 78.2812 71.6719 74.7562 71.6719 67.2937C71.6719 60.4312 76.9125 55.2 85.0875 55.2C90.9094 55.2 95.0906 57.225 98.1094 62.5312L90.9844 67.1156C89.4094 64.2937 87.7219 63.1875 85.0875 63.1875C82.4063 63.1875 80.7094 64.8937 80.7094 67.1156C80.7094 69.8625 82.4063 70.9687 86.3344 72.675L88.6219 73.6594C96.4125 76.9875 100.8 80.3906 100.8 88.0406C100.8 96.2812 94.3219 100.8 85.6219 100.8Z" fill="#f5f5f5"/>
</svg>
