<svg width="130" height="130" viewBox="0 0 130 130" fill="none" xmlns="http://www.w3.org/2000/svg">
<path d="M113.75 46.8542C113.75 102.375 65 119.167 65 119.167C65 119.167 16.25 102.375 16.25 46.8542C16.25 40.0834 16.7917 34.3959 17.3333 29.7917C18.1458 23.0209 22.75 17.6042 29.25 15.9792C37.6458 13.5417 50.9167 10.8334 65 10.8334C79.0833 10.8334 92.3542 13.5417 101.021 15.9792C107.521 17.6042 112.125 23.2917 112.937 29.7917C113.208 34.3959 113.75 40.3542 113.75 46.8542Z" fill="#ffffff00"/>
<path d="M65 18.9584C78.2708 18.9584 90.7292 21.6667 98.8542 23.8334C102.104 24.6459 104.271 27.3542 104.812 30.875C105.354 36.0209 105.625 41.4375 105.625 46.8542C105.625 89.1042 74.4792 106.167 65 110.229C55.5208 105.896 24.375 88.8334 24.375 46.8542C24.375 41.4375 24.6458 36.0209 25.1875 30.875C25.4583 27.3542 27.8958 24.6459 31.1458 23.8334C39.2708 21.6667 51.7292 18.9584 65 18.9584ZM65 10.8334C50.9167 10.8334 37.6458 13.5417 28.9792 15.9792C22.75 17.6042 17.875 23.2917 17.3333 29.7917C16.7917 34.3959 16.25 40.3542 16.25 46.8542C16.25 102.375 65 119.167 65 119.167C65 119.167 113.75 102.375 113.75 46.8542C113.75 40.0834 113.208 34.3959 112.667 29.7917C111.854 23.0209 107.25 17.6042 100.75 15.9792C92.3542 13.5417 79.0833 10.8334 65 10.8334Z" fill="#f5f5f5"/>
<path d="M62.2917 75.8334H67.7083V97.5H62.2917V75.8334Z" fill="#DBD8E3"/>
<path d="M65 27.0834C65 27.0834 48.75 40.625 48.75 62.2917C48.75 76.375 57.6875 85.3125 62.2917 89.375L65 81.25L67.7083 89.375C72.3125 85.3125 81.25 76.375 81.25 62.2917C81.25 40.625 65 27.0834 65 27.0834Z" fill="#a5a5a5"/>
<path d="M65 27.0834C65 27.0834 48.75 40.625 48.75 62.2917C48.75 76.375 57.6875 85.3125 62.2917 89.375L65 81.25V27.0834Z" fill="#f5f5f5"/>
</svg>
