<svg width="127" height="127" viewBox="0 0 127 127" fill="none" xmlns="http://www.w3.org/2000/svg">
<path d="M63.3214 5.08499C63.0423 5.08626 62.7609 5.13246 62.4929 5.2239L9.32656 23.7282C8.1988 24.1194 7.49252 25.2457 7.63984 26.4319L16.0437 95.3244C16.1427 96.1398 16.6245 96.8581 17.3484 97.2493L62.1754 121.612C62.5513 121.818 62.9693 121.92 63.3859 121.92C63.805 121.92 64.2278 121.816 64.6063 121.607L109.662 96.9119C110.378 96.5182 110.865 95.8023 110.961 94.9921L119.36 26.1045C119.507 24.9132 118.794 23.7769 117.654 23.3908L64.1449 5.21397C63.8782 5.12507 63.6005 5.08372 63.3214 5.08499ZM63.5 17.78L96.52 88.9H85.2487L78.1844 73.6799H48.8156L41.7512 88.9H30.48L63.5 17.78ZM63.5 41.91L53.5434 63.5H73.4566L63.5 41.91Z" fill="#f5f5f5"/>
</svg>
