<svg width="142" height="142" viewBox="0 0 142 142" fill="none" xmlns="http://www.w3.org/2000/svg">
<path d="M70.974 13.3125C69.3543 13.3125 67.735 13.7098 66.3372 14.5085L22.3608 39.8942C19.5208 41.536 17.75 44.6447 17.75 47.9285V93.9849C17.75 97.313 19.5208 100.377 22.3608 102.019L33.9053 108.675C39.4965 111.427 41.4903 111.423 44.0197 111.423C52.3178 111.423 57.0635 106.409 57.0635 97.7117V50.1906C57.0635 49.4806 56.4908 48.8992 55.7808 48.8992H50.2339C49.4795 48.8992 48.9425 49.4806 48.9425 50.1906V97.6683C48.9425 101.573 44.9092 105.389 38.3861 102.149L26.313 95.1809C25.8692 94.959 25.6023 94.473 25.6023 93.9849V47.9718C25.6023 47.4393 25.8692 46.99 26.313 46.7238L70.2893 21.3468C70.6887 21.0806 71.2236 21.0806 71.6674 21.3468L115.644 46.7238C116.087 46.99 116.354 47.4403 116.354 47.9285V93.9849C116.354 94.473 116.086 94.959 115.687 95.1809L71.6674 120.61C71.268 120.832 70.6887 120.832 70.2893 120.61L58.9702 113.91C58.6596 113.688 58.2235 113.646 57.9128 113.824C54.7622 115.599 54.1853 115.819 51.2566 116.84C50.5466 117.062 49.4365 117.504 51.6553 118.746L66.3372 127.448C67.7572 128.247 69.3592 128.688 70.9567 128.688C72.5985 128.688 74.1908 128.247 75.6108 127.448L119.639 102.019C122.479 100.377 124.25 97.313 124.25 93.9849V47.9718C124.25 44.6437 122.479 41.5794 119.639 39.9375L75.6108 14.5085C74.213 13.7098 72.5937 13.3125 70.974 13.3125ZM82.8044 48.8385C70.2463 48.8385 62.749 54.16 62.749 63.035C62.749 72.6644 70.1971 75.3227 82.2671 76.5209C96.689 77.9409 97.7983 80.0771 97.7983 82.9171C97.7983 87.7984 93.8556 89.8854 84.5812 89.8854C72.9106 89.8854 70.3351 86.9525 69.4919 81.1837C69.4032 80.5625 68.8738 80.1177 68.2526 80.1177H62.5237C61.8137 80.1177 61.2843 80.7001 61.2843 81.3657C61.2843 88.7763 65.3224 97.599 84.5812 97.599C98.5149 97.599 106.5 92.1034 106.5 82.5184C106.5 73.0222 100.065 70.488 86.5746 68.6686C72.8627 66.8936 71.4854 65.9614 71.4854 62.7664C71.4854 60.1039 72.6869 56.6041 82.8044 56.6041C91.8126 56.6041 95.1833 58.5504 96.559 64.6298C96.6921 65.2066 97.1771 65.6525 97.7983 65.6525H103.527C103.882 65.6525 104.188 65.4767 104.455 65.2104C104.676 64.9886 104.811 64.6305 104.767 64.2311C103.879 53.7586 96.9157 48.8385 82.8044 48.8385Z" fill="#f5f5f5"/>
</svg>
