<svg width="164" height="164" viewBox="0 0 164 164" fill="none" xmlns="http://www.w3.org/2000/svg">
<path d="M51.4102 49.0679C50.1238 49.0679 48.8047 49.1441 47.4363 49.3081L48.217 51.7605C49.4214 51.6324 50.6162 51.5903 51.8206 51.5903H52.241L51.4102 49.0679ZM67.2256 51.5103L67.0654 54.2429C68.4338 54.7042 69.7571 55.2063 71.0793 55.7444L71.2495 52.9617C70.8754 52.7567 69.8342 52.2585 67.2256 51.5103ZM33.1423 53.0818C32.1071 53.6199 31.0264 54.1973 29.9092 54.8635L31.811 57.7664C32.8873 57.1001 33.9279 56.4827 35.0042 55.9446L33.1423 53.0818ZM51.9407 53.2119C50.779 53.2205 49.6028 53.2836 48.4272 53.4021C36.3322 54.4783 21.4738 65.4955 12.8125 79.948C4.1 94.4517 2.92285 106.754 2.92285 106.754H35.6147C35.6147 106.754 29.3638 78.2075 50.0688 66.625C54.3738 64.5238 67.7573 56.9347 89.4873 71.4897L91.1189 70.0083C84.9689 64.7231 69.3657 53.0833 51.9407 53.2119ZM67.1455 64.5229L66.9853 67.1255C68.3537 67.1665 69.711 67.3339 71.0793 67.626L71.2495 65.0535C69.8453 64.7665 68.4729 64.6049 67.1455 64.5229ZM57.4561 65.5139C56.0467 65.9239 54.8478 66.3891 53.8125 66.8452L54.7634 69.698C55.9627 69.1189 57.1677 68.6207 58.3669 68.2466L57.4561 65.5139ZM16.406 65.6841C15.3298 66.7193 14.2963 67.7519 13.343 68.7871L16.5261 71.5198C17.3974 70.4025 18.3546 69.2818 19.3489 68.2466L16.406 65.6841ZM46.0649 71.8101C45.1117 72.6864 44.2356 73.6295 43.4924 74.5828L45.4844 77.5657C46.1865 76.5304 47.0145 75.5761 47.9268 74.6228L46.0649 71.8101ZM52.0208 77.7158V106.224H58.9575V98.3459L59.8384 99.2568L66.3447 106.224H76.875L67.7361 97.0046L68.8272 96.9045C69.0988 96.8789 75.6138 96.1888 75.6138 87.4353C75.6138 78.6664 67.6278 77.7466 67.3357 77.7158H52.0208ZM87.6855 77.916C82.3043 77.916 80.4885 82.8632 80.4885 85.113V106.224H87.5454V101.049H96.1538V106.224H102.95V85.113C102.95 79.2449 97.6289 77.916 95.7634 77.916H87.6855ZM107.665 77.916V106.214H115.052V77.916H107.665ZM119.507 77.916V106.224H138.175V99.6672H126.864V77.916H119.507ZM148.785 77.916C145.751 77.916 141.548 80.4567 141.548 85.2332V87.8457C141.548 92.7555 145.869 95.0427 148.785 95.0427L152.459 95.0527C153.038 95.0374 155.682 95.0427 155.682 95.0427V99.7073L141.958 99.7473V106.214H155.001C157.697 106.214 162.034 104.259 162.188 99.0266V96.1238C162.188 91.624 158.532 88.9368 155.001 88.9368H147.734V84.4324H161.117V77.916H148.785ZM38.7378 83.3613C38.1945 84.8988 37.8197 86.4344 37.4866 87.9258L40.8499 90.5784C41.0139 88.964 41.3056 87.3431 41.7207 85.7236L38.7378 83.3613ZM90.5483 83.8918H93.311C95.4738 83.8918 96.0933 85.2657 96.1138 86.0139V93.7014H87.5054V86.0139C87.5054 85.9934 87.5451 83.8918 90.5483 83.8918ZM58.9675 84.092L66.0344 84.1221C66.1164 84.1579 68.1465 84.9523 68.1465 87.9658C68.1465 90.9742 66.091 91.8079 65.8142 91.8796H58.9675V84.092ZM2.07202 85.033C1.2879 86.8113 0.415125 88.8806 0 89.9978L4.76465 91.7395C5.30277 90.3301 6.17042 88.297 6.83667 86.7646L2.07202 85.033ZM36.866 98.446C36.948 100.64 37.1615 102.421 37.3665 103.661L42.3413 105.443C41.9672 103.828 41.5915 102.005 41.3403 100.058L36.866 98.446Z" fill="#f5f5f5"/>
</svg>
