<svg width="16" height="13" viewBox="0 0 16 13" fill="none" xmlns="http://www.w3.org/2000/svg">
<path d="M5.03181 12.869C11.0698 12.869 14.3718 7.91842 14.3718 3.62548C14.3718 3.48486 14.3689 3.34489 14.3625 3.20555C15.0035 2.74697 15.5606 2.17471 16 1.52327C15.4118 1.78201 14.7789 1.95619 14.1149 2.03473C14.7926 1.63253 15.3129 0.996295 15.5584 0.237836C14.9241 0.609951 14.2218 0.880407 13.4739 1.02642C12.8749 0.394959 12.0221 0 11.0778 0C9.26495 0 7.79491 1.45491 7.79491 3.24829C7.79491 3.50323 7.8237 3.7512 7.88003 3.98906C5.15174 3.85319 2.7325 2.56045 1.11341 0.594748C0.831492 1.07485 0.668933 1.63254 0.668933 2.22761C0.668933 3.35473 1.24847 4.34974 2.12975 4.93185C1.59118 4.91538 1.08525 4.76906 0.643054 4.52553C0.642571 4.53916 0.642569 4.55245 0.642569 4.56702C0.642569 6.14036 1.7741 7.45398 3.27614 7.75165C3.0003 7.82607 2.71008 7.86598 2.41055 7.86598C2.19935 7.86598 1.99358 7.8454 1.79359 7.80739C2.2115 9.09822 3.42336 10.0375 4.86012 10.0638C3.73659 10.9353 2.32126 11.4544 0.783025 11.4544C0.518384 11.4544 0.256947 11.4395 0 11.4094C1.45281 12.331 3.17789 12.8688 5.03199 12.8688" fill="white"/>
</svg>
